<svg xmlns="http://www.w3.org/2000/svg" data-name="Layer 1" width="64" height="64" style=""><rect id="backgroundrect" width="100%" height="100%" x="0" y="0" fill="none" stroke="none" class="" style=""/><defs><style>.cls-1{fill:#f9bc15;}.cls-2{fill:#fff;}</style></defs><title>logo-libre2</title><g class="currentLayer" style=""><title>Layer 1</title><g id="Canvas" class=""><g id="path38"><path id="path0_fill" data-name="path0 fill" class="cls-1" d="M18.217500002980245,45.347503222376105 L0.9375000029802437,32.79750322237611 a31.62,31.62 0 0 0 1.4100000000000001,8.79 l13.83,10 zm4.8900000000000015,17 a31.18,31.18 0 0 0 8.79,1.3800000000000001 l13.82,-10.05 l-5.34,-3.88 zm0.8400000000000005,-24.49 l-2,6.29 l5.11,3.71 l-13.37,9.7 a1.8800000000000003,1.8800000000000003 0 0 0 0.24000000000000013,0.18000000000000013 a30.54,30.54 0 0 0 5.69,3.2800000000000002 l18.13,-13.16 zm27.52,-7.76 l6.59,20.3 a31.27,31.27 0 0 0 4,-7.94 l-5.28,-16.25 zM35.02750000298022,42.02750322237611 L40.37750000298024,45.93750322237611 l5.11,-3.71 l5.1,15.7 l0.24000000000000013,-0.17 a30.75,30.75 0 0 0 4.88,-4.39 L48.78750000298024,32.0375032223761 zm-10.54,-16 h-6.6 l-1.9500000000000002,6 l-13.36,-9.71 c0,0.09000000000000012 -0.07,0.19000000000000014 -0.1,0.28 A30.25,30.25 0 0 0 1.1375000029802322,29.037503222376102 L19.237500002980227,42.207503222376104 zm33,-12.58 a31.45,31.45 0 0 0 -6.3,-6.27 H34.13750000298023 l2,6.27 zM42.41750000298023,32.77750322237611 L47.76750000298023,28.937503222376108 l-1.9500000000000002,-6 H62.33750000298022 l-0.09000000000000012,-0.29000000000000026 a31,31 0 0 0 -2.68,-6 H37.13750000298023 zM22.197500002980235,2.5875032223761067 a31.18,31.18 0 0 0 -7.92,4.05 L8.997500002980246,22.937503222376108 h6.6 zM35.90750000298024,22.937503222376108 l-2,-6.29 h-6.3100000000000005 L32.65750000298024,0.9375032223761082 h-0.30000000000000027 a31.11,31.11 0 0 0 -6.53,0.6900000000000008 L18.907500002980242,22.937503222376108 z"/></g></g></g></svg>