<svg width="48" height="48" viewBox="0 0 48 48" version="1.1" xmlns="http://www.w3.org/2000/svg" xmlns:xlink="http://www.w3.org/1999/xlink">
<title>path98</title>
<desc>Created using Figma</desc>
<g id="Canvas" transform="translate(1316 -1446)">
<g id="path98">
<use xlink:href="#path0_fill" transform="matrix(1 -1.22313e-16 -1.22616e-16 -1 -1316 1494)" fill="#FBBC09"/>
</g>
</g>
<defs>
<path id="path0_fill" d="M 14.8804 22.8L 5.96077e-09 22.8C 0.0811004 21.15 0.33101 19.5444 0.729903 18L 13.3185 18L 14.8804 22.8ZM 17.2233 30L 0.729903 30C 0.33101 28.4544 0.0811004 26.85 5.96077e-09 25.2L 15.662 25.2L 17.2233 30ZM 24.0003 4.8C 16.4147 4.8 9.84558 9.2112 6.72172 15.6L 1.49405 15.6C 4.91048 6.4992 13.7084 0 24.0003 0C 34.2922 0 43.0895 6.4992 46.5066 15.6L 41.2783 15.6C 38.1544 9.2112 31.5859 4.8 24.0003 4.8ZM 26.5264 35.298L 21.4742 35.298L 15.4541 16.8L 13.8922 12L 34.1078 12L 32.5459 16.8L 31.7643 19.2L 30.5935 22.8L 25.5376 22.8L 26.7091 19.2L 27.49 16.8L 20.51 16.8L 24.0003 27.531L 26.5264 35.298ZM 32.3386 25.2L 48 25.2C 47.9189 26.85 47.669 28.4544 47.2701 30L 30.7767 30L 32.3386 25.2ZM 24.0003 43.2C 31.5859 43.2 38.1544 38.7888 41.2783 32.4L 46.5066 32.4C 43.0895 41.5008 34.2922 48 24.0003 48C 13.7084 48 4.91048 41.5008 1.49405 32.4L 6.72172 32.4C 9.84558 38.7888 16.4147 43.2 24.0003 43.2ZM 34.6815 18L 47.2701 18C 47.669 19.5444 47.9189 21.15 48 22.8L 33.1196 22.8L 34.6815 18Z"/>
</defs>
</svg>
