<svg width="18" height="15" viewBox="0 0 18 15" version="1.1" xmlns="http://www.w3.org/2000/svg" xmlns:xlink="http://www.w3.org/1999/xlink">
<title>Vector</title>
<desc>Created using Figma</desc>
<g id="Canvas" transform="translate(-252 -1458)">
<g id="Vector">
<use xlink:href="#path0_fill" transform="translate(252.431 1458.17)" fill="#F5B300"/>
</g>
</g>
<defs>
<path id="path0_fill" d="M 15.1435 0.309186L 4.87127 11.6628L 1.63221 8.08293C 1.28534 7.69856 0.691898 7.66997 0.30846 8.01637C -0.0749774 8.36372 -0.105446 8.95669 0.242366 9.34059L 4.01487 13.5097C 4.18737 13.7609 4.47377 13.9081 4.77752 13.9081C 4.81174 13.9081 4.84596 13.894 4.88065 13.8898C 4.90455 13.8917 4.92752 13.9048 4.95096 13.9048C 5.22846 13.9048 5.49752 13.7801 5.67987 13.565L 16.5333 1.56731C 16.8811 1.18294 16.8511 0.589967 16.4672 0.242623C 16.0838 -0.104721 15.4908 -0.076127 15.1435 0.309186Z"/>
</defs>
</svg>
