<svg width="47" height="48" viewBox="0 0 47 48" version="1.1" xmlns="http://www.w3.org/2000/svg" xmlns:xlink="http://www.w3.org/1999/xlink">
<title>path38</title>
<desc>Created using Figma</desc>
<g id="Canvas" transform="translate(1315 -1343)">
<g id="path38">
<use xlink:href="#path0_fill" transform="matrix(1 -1.22465e-16 -1.22465e-16 -1 -1315 1391)" fill="#FBBC09"/>
</g>
</g>
<defs>
<path id="path0_fill" d="M 13.197 14.0388L -6.19044e-11 23.6268C 0.0354 21.3276 0.4056 19.0686 1.0752 16.9134L 11.6376 9.2412L 13.197 14.0388ZM 16.9344 1.0518C 19.1322 0.375 21.3954 0.0276 23.6514 7.70559e-09L 34.212 7.6734L 30.132 10.638L 16.9344 1.0518ZM 17.5782 19.7598L 16.0188 14.9574L 19.9194 12.1242L 9.7104 4.7082C 9.7692 4.6614 9.8328 4.6146 9.8928 4.5726C 11.2884 3.5574 12.7398 2.7276 14.2386 2.0646L 28.0872 12.1242L 17.5782 19.7598ZM 38.5974 25.6944L 43.638 10.1808C 44.9604 12.0618 45.9894 14.1066 46.7142 16.2444L 42.6792 28.659L 38.5974 25.6944ZM 26.0448 16.575L 30.129 13.6074L 34.0302 16.4412L 37.9278 4.4412C 37.9902 4.4808 38.0538 4.5276 38.1138 4.5726C 39.5094 5.5848 40.7484 6.7098 41.8422 7.9308L 36.5538 24.2094L 26.0448 16.575ZM 17.9916 28.7952L 12.9432 28.7952L 11.4534 24.2082L 1.2462 31.6272C 1.2198 31.557 1.1958 31.4832 1.1724 31.4106C 0.639 29.7702 0.2976 28.134 0.1302 26.5026L 13.9776 16.4412L 17.9916 28.7952ZM 43.2078 38.4C 41.8272 40.2372 40.2 41.8488 38.3916 43.1976L 25.3362 43.1976L 26.895 38.4L 43.2078 38.4ZM 31.6902 23.6412L 35.7738 26.6094L 34.284 31.1952L 46.902 31.194C 46.8828 31.2654 46.8582 31.3404 46.8348 31.4106C 46.302 33.0522 45.615 34.5768 44.793 35.9952L 27.6762 35.9964L 31.6902 23.6412ZM 16.2372 46.7082C 14.0616 45.9642 12.0276 44.9142 10.1844 43.6122L 6.1524 31.1952L 11.1966 31.1952L 16.2372 46.7082ZM 26.7126 31.1952L 25.1532 35.9964L 20.331 35.9964L 24.2316 47.9964C 24.1566 48 24.0786 48 24.0036 48C 22.2786 48 20.6154 47.8182 19.0128 47.475L 13.7232 31.1952L 26.7126 31.1952Z"/>
</defs>
</svg>
