<svg id="Layer_1" data-name="Layer 1" xmlns="http://www.w3.org/2000/svg" viewBox="0 0 141.12 32.75"><defs><style>.cls-1{fill:#f9bc15;}.cls-2{fill:#fff;}</style></defs><title>logo-libre2-mobile</title><g id="Canvas"><g id="path38"><path id="path0_fill" data-name="path0 fill" class="cls-1" d="M58.82,36.78l-9-6.54a16.37,16.37,0,0,0,.74,4.58l7.2,5.23Zm2.55,8.86a16.28,16.28,0,0,0,4.58.72l7.2-5.24-2.78-2Zm.43-12.76-1.06,3.27,2.66,1.94-7,5.06.12.09a15.84,15.84,0,0,0,3,1.71L69,38.09Zm14.34-4.05,3.44,10.58a16.09,16.09,0,0,0,2.1-4.13l-2.75-8.47Zm-8.56,6.22,2.79,2L73,35.14l2.66,8.19.12-.09A16.06,16.06,0,0,0,78.36,41L74.75,29.84Zm-5.49-8.34H58.64l-1,3.13-7-5.06s0,.1,0,.15a16.84,16.84,0,0,0-.71,3.35l9.45,6.86Zm17.2-6.55A16.18,16.18,0,0,0,76,16.89H67.1l1.06,3.27ZM71.43,30.23l2.79-2-1-3.13h8.61a.88.88,0,0,0,0-.15,16.09,16.09,0,0,0-1.39-3.13H68.69ZM60.89,14.49a16.46,16.46,0,0,0-4.13,2.12L54,25.08h3.44ZM68,25.08,67,21.8H63.68l2.66-8.19h-.15a16.57,16.57,0,0,0-3.41.36L59.17,25.08Z" transform="translate(-49.81 -13.61)"/></g></g><g id="Canvas-2" data-name="Canvas"><g id="path34"><path id="path0_fill-2" data-name="path0 fill" class="cls-2" d="M133.88,31.4h5.56V28.86h-5.56V27.11H140V24.37H130.7V36h9.4V33.24h-6.22Zm13.48,2h-2.48V31.25h2.45c1.07,0,1.57.41,1.57,1S148.34,33.39,147.36,33.39ZM144.88,27H147c1,0,1.46.36,1.46,1S147.87,29,146.9,29h-2Zm4.93,2.95a2.69,2.69,0,0,0,1.79-2.59,2.56,2.56,0,0,0-.74-1.9,4.29,4.29,0,0,0-3.17-1.05h-5.95V36h6c2.77,0,4.39-1.21,4.39-3.2A2.82,2.82,0,0,0,149.81,29.91Zm36.58-.55,4.39-5H187l-4,4.71V24.37h-3.22V36H183V33l1.17-1.31L187.07,36h3.86Zm-62.27.58H122V27.16h2.1c1.08,0,1.74.46,1.74,1.37S125.21,29.94,124.12,29.94Zm4.95-1.57a3.68,3.68,0,0,0-1-2.75,5.1,5.1,0,0,0-3.77-1.25h-5.49V36H122V32.46h1.41L125.74,36h3.71l-2.76-4A3.68,3.68,0,0,0,129.07,28.37Zm28.74,3,1.31-3.3,1.29,3.3Zm-.21-7.11L152.66,36H156l.83-2.07h4.47l.85,2.07h3.44L160.7,24.29Zm16.93,6.21-4.77-6.13h-3V36h3.18V29.61L174.89,36h2.82V24.37h-3.18Zm-62,2.89h-2.48V31.25h2.45c1.08,0,1.58.41,1.58,1S113.53,33.39,112.55,33.39ZM110.07,27h2.09c1,0,1.46.36,1.46,1S113.07,29,112.09,29h-2ZM115,29.91a2.71,2.71,0,0,0,1.79-2.59,2.56,2.56,0,0,0-.75-1.9,4.28,4.28,0,0,0-3.16-1.05h-6V36h6c2.77,0,4.39-1.21,4.39-3.2A2.83,2.83,0,0,0,115,29.91ZM94.53,24.37H91.32V36h8.83V33.15H94.53ZM101.59,36h3.23V24.37h-3.23Z" transform="translate(-49.81 -13.61)"/></g></g></svg>