<?xml version="1.0" encoding="UTF-8"?>
<!DOCTYPE svg PUBLIC "-//W3C//DTD SVG 1.1//EN" "http://www.w3.org/Graphics/SVG/1.1/DTD/svg11.dtd">
<!-- Creator: CorelDRAW X8 -->
<svg xmlns="http://www.w3.org/2000/svg" xml:space="preserve" width="29.6332mm" height="8.4666mm" version="1.1" style="shape-rendering:geometricPrecision; text-rendering:geometricPrecision; image-rendering:optimizeQuality; fill-rule:evenodd; clip-rule:evenodd"
viewBox="0 0 2963 847"
 xmlns:xlink="http://www.w3.org/1999/xlink">
 <defs>
  <style type="text/css">
   <![CDATA[
    .fil0 {fill:#FDC400;fill-rule:nonzero}
   ]]>
  </style>
 </defs>
 <g id="Слой_x0020_1">
  <metadata id="CorelCorpID_0Corel-Layer"/>
  <g id="_2087264687488">
   <path class="fil0" d="M2801 518l-62 -91 -28 32 0 59 -58 0 0 -229 58 0 0 103 88 -103 67 0 -86 97 90 132 -69 0zm-250 0l0 0 -108 -138 0 138 -57 0 0 -229 55 0 104 133 0 -133 58 0 0 229 -52 0zm-260 0l0 0 -18 -42 -97 0 -17 42 -60 0 98 -231 58 0 98 231 -62 0zm-99 -85l0 0 66 0 -33 -83 -33 83zm-320 85l0 0 0 -229 118 0c29,0 49,6 62,20 10,9 15,21 15,36 0,23 -12,39 -35,49l-10 5 11 3c30,10 44,27 44,55 0,38 -32,61 -86,61l-119 0zm56 -44l0 0 56 0c22,0 35,-10 35,-27 0,-8 -3,-26 -36,-26l-55 0 0 53zm0 -91l0 0 46 0c29,0 36,-13 36,-25 0,-8 -4,-25 -35,-25l-47 0 0 50zm-282 135l0 0 0 -229 183 0 0 47 -126 0 0 45 114 0 0 43 -114 0 0 46 128 0 0 48 -185 0zm-104 0l0 0 -48 -72 -35 0 0 72 -58 0 0 -229 109 0c33,0 58,8 74,24 14,13 20,31 20,53 0,41 -25,61 -46,70l-5 2 55 80 -66 0zm-83 -115l0 0 47 0c25,0 40,-13 40,-33 0,-21 -15,-33 -40,-33l-47 0 0 66zm-301 115l0 0 0 -229 118 0c28,0 48,6 62,20 9,9 14,21 14,36 0,23 -11,39 -34,49l-10 5 10 3c31,10 45,27 45,55 0,38 -33,61 -86,61l-119 0zm56 -44l0 0 55 0c23,0 36,-10 36,-27 0,-8 -4,-26 -37,-26l-54 0 0 53zm0 -91l0 0 46 0c29,0 35,-13 35,-25 0,-8 -3,-25 -34,-25l-47 0 0 50zm-166 135l0 0 0 -229 58 0 0 229 -58 0zm-211 0l0 0 0 -229 58 0 0 180 115 0 0 49 -173 0z"/>
   <path class="fil0" d="M392 745c-28,0 -55,-4 -82,-11l173 -126 49 36 -140 101zm-129 -29l0 0c-19,-8 -37,-19 -54,-31l140 -102 -56 -41 19 -58 135 99 -184 133zm275 -199l0 0 -55 40 -50 -36 136 -98 70 216c-14,16 -30,30 -47,43l-54 -165zm-452 -3l0 0c-8,-26 -13,-54 -14,-81l173 125 -19 58 -140 -102zm518 -116l0 0 49 -36 53 164c-9,26 -21,51 -36,74l-66 -202zm-530 -15l0 0c2,-21 7,-42 13,-62l141 102 21 -66 61 0 -52 160 -184 -134zm381 -125l0 0 227 0c10,19 19,38 26,58l-174 0 21 66 -49 36 -51 -160zm-193 58l0 0 71 -216c20,-4 41,-7 63,-7l-54 165 69 0 19 58 -168 0zm-104 0l0 0 54 -164c22,-16 47,-29 73,-39l-66 203 -61 0zm283 -99l0 0 -19 -58 173 0c22,17 42,36 59,58l-213 0z"/>
  </g>
 </g>
</svg>
